<?xml version="1.0" encoding="iso-8859-1"?>
<!-- Generator: Adobe Illustrator 16.0.0, SVG Export Plug-In . SVG Version: 6.00 Build 0)  -->
<!DOCTYPE svg PUBLIC "-//W3C//DTD SVG 1.1//EN" "http://www.w3.org/Graphics/SVG/1.1/DTD/svg11.dtd">
<svg xmlns="http://www.w3.org/2000/svg" xmlns:xlink="http://www.w3.org/1999/xlink" version="1.1" id="Capa_1" x="0px" y="0px" width="512px" height="512px" viewBox="0 0 363.025 363.024" style="enable-background:new 0 0 363.025 363.024;" xml:space="preserve">
<g>
	<g>
		<g>
			<path d="M181.518,209.885c-2.762,0-5.469-1.132-7.413-3.099c-8.168-8.337-34.749-37.024-34.749-57.32     c0-20.859,28.93-51.391,34.731-57.297c3.82-3.894,11.055-3.894,14.87,0c8.148,8.308,34.726,37.004,34.726,57.292     c0,20.296-26.577,48.989-34.726,57.303C186.988,208.753,184.289,209.885,181.518,209.885z M181.524,101.326     c-11.053,11.459-30.451,34.966-30.451,48.14c0,11.502,15.61,32.79,30.451,48.148c14.827-15.336,30.448-36.641,30.448-48.148     C211.972,137.967,196.368,116.685,181.524,101.326z" fill="#FFFFFF"/>
		</g>
		<g>
			<path d="M168.656,273.933L168.656,273.933h-0.166c-8.371-0.086-50.418-1.218-65.162-15.971     c-14.344-14.341-15.845-53.418-15.962-65.06c-0.012-2.813,1.106-5.54,3.076-7.49c1.884-1.887,4.654-3.042,7.388-3.042     c11.71,0.126,50.813,1.646,65.134,15.977c13.343,13.334,15.593,48.042,15.922,63.069c0.14,0.687,0.209,1.396,0.209,2.104     c0,2.778-1.095,5.408-3.074,7.376C174.042,272.852,171.429,273.933,168.656,273.933z M168.51,262.233l0.146,5.844v-5.855l0,0     C168.602,262.222,168.556,262.228,168.51,262.233z M99.087,194.104c0.363,21.334,4.38,47.448,12.514,55.579     c9.314,9.32,39.663,12.225,55.579,12.522c-0.4-20.299-3.905-46.979-12.502-55.579     C145.409,197.346,116.004,194.418,99.087,194.104z" fill="#FFFFFF"/>
		</g>
		<g>
			<path d="M194.607,273.933h-0.068c-2.762,0-5.449-1.115-7.382-3.059c-1.944-1.945-3.051-4.655-3.045-7.434     c0.071-8.291,1.16-50.308,15.967-65.1c14.307-14.324,53.418-15.84,65.065-15.971c2.825,0,5.501,1.109,7.456,3.053     c1.956,1.945,3.071,4.666,3.06,7.445c-0.086,8.314-1.218,50.358-15.971,65.094c-14.312,14.324-53.417,15.839-65.06,15.971     H194.607z M263.944,194.104c-16.902,0.309-46.311,3.248-55.574,12.522c-9.359,9.343-12.253,39.683-12.521,55.579     c16.919-0.32,46.31-3.248,55.573-12.522C260.742,240.374,263.646,210.017,263.944,194.104z" fill="#FFFFFF"/>
		</g>
	</g>
	<g>
		<path d="M181.512,363.024C81.43,363.024,0,281.601,0,181.513C0,81.43,81.43,0,181.512,0    c100.089,0,181.513,81.424,181.513,181.513C363.031,281.601,281.601,363.024,181.512,363.024z M181.512,11.716    c-93.629,0-169.802,76.173-169.802,169.803c0,93.632,76.173,169.802,169.802,169.802c93.633,0,169.803-76.176,169.803-169.802    C351.315,87.895,275.145,11.716,181.512,11.716z" fill="#FFFFFF"/>
	</g>
</g>
<g>
</g>
<g>
</g>
<g>
</g>
<g>
</g>
<g>
</g>
<g>
</g>
<g>
</g>
<g>
</g>
<g>
</g>
<g>
</g>
<g>
</g>
<g>
</g>
<g>
</g>
<g>
</g>
<g>
</g>
</svg>
